<mxfile host="Electron" agent="Mozilla/5.0 (Macintosh; Intel Mac OS X 10_15_7) AppleWebKit/537.36 (KHTML, like Gecko) draw.io/28.0.6 Chrome/138.0.7204.100 Electron/37.2.3 Safari/537.36" version="28.0.6">
  <diagram name="Page-1" id="wG7ui49UzX0hYoIAc-ph">
    <mxGraphModel dx="1113" dy="799" grid="1" gridSize="10" guides="1" tooltips="1" connect="1" arrows="1" fold="1" page="1" pageScale="1" pageWidth="900" pageHeight="1600" math="0" shadow="0">
      <root>
        <mxCell id="0" />
        <mxCell id="1" parent="0" />
        <mxCell id="Q1OHYpFkGlwIj8Ta-2Hy-1" value="" style="rounded=0;whiteSpace=wrap;html=1;dashed=1;dashPattern=1 4;" vertex="1" parent="1">
          <mxGeometry x="160" y="160" width="680" height="80" as="geometry" />
        </mxCell>
        <mxCell id="Q1OHYpFkGlwIj8Ta-2Hy-2" value="" style="rounded=0;whiteSpace=wrap;html=1;dashed=1;dashPattern=1 4;" vertex="1" parent="1">
          <mxGeometry x="160" y="240" width="680" height="80" as="geometry" />
        </mxCell>
        <mxCell id="Q1OHYpFkGlwIj8Ta-2Hy-39" value="" style="edgeStyle=orthogonalEdgeStyle;rounded=0;orthogonalLoop=1;jettySize=auto;html=1;" edge="1" parent="1" source="Q1OHYpFkGlwIj8Ta-2Hy-3" target="Q1OHYpFkGlwIj8Ta-2Hy-21">
          <mxGeometry relative="1" as="geometry" />
        </mxCell>
        <mxCell id="Q1OHYpFkGlwIj8Ta-2Hy-3" value="" style="rounded=0;whiteSpace=wrap;html=1;dashed=1;dashPattern=1 4;" vertex="1" parent="1">
          <mxGeometry x="160" y="320" width="680" height="80" as="geometry" />
        </mxCell>
        <mxCell id="Q1OHYpFkGlwIj8Ta-2Hy-20" value="" style="rounded=0;whiteSpace=wrap;html=1;dashed=1;dashPattern=1 4;" vertex="1" parent="1">
          <mxGeometry x="160" y="400" width="680" height="80" as="geometry" />
        </mxCell>
        <mxCell id="Q1OHYpFkGlwIj8Ta-2Hy-7" value="Websocket API" style="rounded=1;whiteSpace=wrap;html=1;fillColor=#fff2cc;strokeColor=#d6b656;" vertex="1" parent="1">
          <mxGeometry x="170" y="180" width="660" height="40" as="geometry" />
        </mxCell>
        <mxCell id="Q1OHYpFkGlwIj8Ta-2Hy-9" value="Ticker" style="rounded=1;whiteSpace=wrap;html=1;fillColor=#dae8fc;strokeColor=#6c8ebf;" vertex="1" parent="1">
          <mxGeometry x="300" y="260" width="250" height="40" as="geometry" />
        </mxCell>
        <mxCell id="Q1OHYpFkGlwIj8Ta-2Hy-28" style="edgeStyle=orthogonalEdgeStyle;rounded=0;orthogonalLoop=1;jettySize=auto;html=1;exitX=0.5;exitY=1;exitDx=0;exitDy=0;entryX=0.5;entryY=0;entryDx=0;entryDy=0;startArrow=blockThin;startFill=1;endArrow=blockThin;endFill=1;" edge="1" parent="1" source="Q1OHYpFkGlwIj8Ta-2Hy-10" target="Q1OHYpFkGlwIj8Ta-2Hy-16">
          <mxGeometry relative="1" as="geometry">
            <Array as="points">
              <mxPoint x="705" y="320" />
              <mxPoint x="365" y="320" />
            </Array>
          </mxGeometry>
        </mxCell>
        <mxCell id="Q1OHYpFkGlwIj8Ta-2Hy-30" style="edgeStyle=orthogonalEdgeStyle;rounded=0;orthogonalLoop=1;jettySize=auto;html=1;exitX=0.5;exitY=1;exitDx=0;exitDy=0;entryX=0.5;entryY=0;entryDx=0;entryDy=0;startArrow=blockThin;startFill=1;endArrow=blockThin;endFill=1;" edge="1" parent="1" source="Q1OHYpFkGlwIj8Ta-2Hy-10" target="Q1OHYpFkGlwIj8Ta-2Hy-17">
          <mxGeometry relative="1" as="geometry" />
        </mxCell>
        <mxCell id="Q1OHYpFkGlwIj8Ta-2Hy-31" style="edgeStyle=orthogonalEdgeStyle;rounded=0;orthogonalLoop=1;jettySize=auto;html=1;exitX=0.5;exitY=1;exitDx=0;exitDy=0;entryX=0.5;entryY=0;entryDx=0;entryDy=0;startArrow=blockThin;startFill=1;endArrow=blockThin;endFill=1;" edge="1" parent="1" source="Q1OHYpFkGlwIj8Ta-2Hy-10" target="Q1OHYpFkGlwIj8Ta-2Hy-18">
          <mxGeometry relative="1" as="geometry" />
        </mxCell>
        <mxCell id="Q1OHYpFkGlwIj8Ta-2Hy-32" style="edgeStyle=orthogonalEdgeStyle;rounded=0;orthogonalLoop=1;jettySize=auto;html=1;exitX=0.5;exitY=1;exitDx=0;exitDy=0;entryX=0.5;entryY=0;entryDx=0;entryDy=0;startArrow=blockThin;startFill=1;endArrow=blockThin;endFill=1;" edge="1" parent="1" source="Q1OHYpFkGlwIj8Ta-2Hy-10" target="Q1OHYpFkGlwIj8Ta-2Hy-19">
          <mxGeometry relative="1" as="geometry" />
        </mxCell>
        <mxCell id="Q1OHYpFkGlwIj8Ta-2Hy-10" value="Broker" style="rounded=1;whiteSpace=wrap;html=1;fillColor=#d5e8d4;strokeColor=#82b366;" vertex="1" parent="1">
          <mxGeometry x="580" y="260" width="250" height="40" as="geometry" />
        </mxCell>
        <mxCell id="Q1OHYpFkGlwIj8Ta-2Hy-16" value="Inventory 1" style="rounded=1;whiteSpace=wrap;html=1;fillColor=#e1d5e7;strokeColor=#9673a6;" vertex="1" parent="1">
          <mxGeometry x="305" y="340" width="120" height="40" as="geometry" />
        </mxCell>
        <mxCell id="Q1OHYpFkGlwIj8Ta-2Hy-35" style="edgeStyle=orthogonalEdgeStyle;rounded=0;orthogonalLoop=1;jettySize=auto;html=1;exitX=0.5;exitY=1;exitDx=0;exitDy=0;entryX=0.5;entryY=0;entryDx=0;entryDy=0;startArrow=blockThin;startFill=1;endArrow=blockThin;endFill=1;" edge="1" parent="1" source="Q1OHYpFkGlwIj8Ta-2Hy-17" target="Q1OHYpFkGlwIj8Ta-2Hy-21">
          <mxGeometry relative="1" as="geometry" />
        </mxCell>
        <mxCell id="Q1OHYpFkGlwIj8Ta-2Hy-17" value="Inventory 2" style="rounded=1;whiteSpace=wrap;html=1;fillColor=#e1d5e7;strokeColor=#9673a6;" vertex="1" parent="1">
          <mxGeometry x="440" y="340" width="120" height="40" as="geometry" />
        </mxCell>
        <mxCell id="Q1OHYpFkGlwIj8Ta-2Hy-18" value="Inventory 3" style="rounded=1;whiteSpace=wrap;html=1;fillColor=#e1d5e7;strokeColor=#9673a6;" vertex="1" parent="1">
          <mxGeometry x="575" y="340" width="120" height="40" as="geometry" />
        </mxCell>
        <mxCell id="Q1OHYpFkGlwIj8Ta-2Hy-19" value="Inventory n" style="rounded=1;whiteSpace=wrap;html=1;fillColor=#e1d5e7;strokeColor=#9673a6;" vertex="1" parent="1">
          <mxGeometry x="710" y="340" width="120" height="40" as="geometry" />
        </mxCell>
        <mxCell id="Q1OHYpFkGlwIj8Ta-2Hy-21" value="Database" style="rounded=1;whiteSpace=wrap;html=1;fillColor=#fad9d5;strokeColor=#ae4132;" vertex="1" parent="1">
          <mxGeometry x="170" y="420" width="660" height="40" as="geometry" />
        </mxCell>
        <mxCell id="Q1OHYpFkGlwIj8Ta-2Hy-23" style="edgeStyle=orthogonalEdgeStyle;rounded=0;orthogonalLoop=1;jettySize=auto;html=1;exitX=0.091;exitY=0.983;exitDx=0;exitDy=0;entryX=0.5;entryY=0;entryDx=0;entryDy=0;exitPerimeter=0;startArrow=blockThin;startFill=1;endArrow=blockThin;endFill=1;" edge="1" parent="1" source="Q1OHYpFkGlwIj8Ta-2Hy-7" target="Q1OHYpFkGlwIj8Ta-2Hy-11">
          <mxGeometry relative="1" as="geometry" />
        </mxCell>
        <mxCell id="Q1OHYpFkGlwIj8Ta-2Hy-27" style="edgeStyle=orthogonalEdgeStyle;rounded=0;orthogonalLoop=1;jettySize=auto;html=1;entryX=0.5;entryY=0;entryDx=0;entryDy=0;endArrow=blockThin;endFill=1;startArrow=blockThin;startFill=1;" edge="1" parent="1" target="Q1OHYpFkGlwIj8Ta-2Hy-10">
          <mxGeometry relative="1" as="geometry">
            <mxPoint x="705" y="230" as="sourcePoint" />
          </mxGeometry>
        </mxCell>
        <mxCell id="Q1OHYpFkGlwIj8Ta-2Hy-26" style="edgeStyle=orthogonalEdgeStyle;rounded=0;orthogonalLoop=1;jettySize=auto;html=1;exitX=1;exitY=0.5;exitDx=0;exitDy=0;entryX=0;entryY=0.5;entryDx=0;entryDy=0;endArrow=blockThin;endFill=1;startArrow=blockThin;startFill=1;" edge="1" parent="1" source="Q1OHYpFkGlwIj8Ta-2Hy-9" target="Q1OHYpFkGlwIj8Ta-2Hy-10">
          <mxGeometry relative="1" as="geometry" />
        </mxCell>
        <mxCell id="Q1OHYpFkGlwIj8Ta-2Hy-11" value="Storage" style="rounded=1;whiteSpace=wrap;html=1;fillColor=#ffe6cc;strokeColor=#d79b00;" vertex="1" parent="1">
          <mxGeometry x="170" y="340" width="120" height="40" as="geometry" />
        </mxCell>
        <mxCell id="Q1OHYpFkGlwIj8Ta-2Hy-25" style="edgeStyle=orthogonalEdgeStyle;rounded=0;orthogonalLoop=1;jettySize=auto;html=1;exitX=0.5;exitY=1;exitDx=0;exitDy=0;endArrow=blockThin;endFill=1;startArrow=blockThin;startFill=1;entryX=0.092;entryY=-0.02;entryDx=0;entryDy=0;entryPerimeter=0;" edge="1" parent="1" source="Q1OHYpFkGlwIj8Ta-2Hy-11" target="Q1OHYpFkGlwIj8Ta-2Hy-21">
          <mxGeometry relative="1" as="geometry">
            <mxPoint x="230" y="410" as="targetPoint" />
          </mxGeometry>
        </mxCell>
        <mxCell id="Q1OHYpFkGlwIj8Ta-2Hy-34" style="edgeStyle=orthogonalEdgeStyle;rounded=0;orthogonalLoop=1;jettySize=auto;html=1;exitX=0.5;exitY=1;exitDx=0;exitDy=0;entryX=0.293;entryY=-0.011;entryDx=0;entryDy=0;entryPerimeter=0;startArrow=blockThin;startFill=1;endArrow=blockThin;endFill=1;" edge="1" parent="1" source="Q1OHYpFkGlwIj8Ta-2Hy-16" target="Q1OHYpFkGlwIj8Ta-2Hy-21">
          <mxGeometry relative="1" as="geometry" />
        </mxCell>
        <mxCell id="Q1OHYpFkGlwIj8Ta-2Hy-36" style="edgeStyle=orthogonalEdgeStyle;rounded=0;orthogonalLoop=1;jettySize=auto;html=1;exitX=0.5;exitY=1;exitDx=0;exitDy=0;entryX=0.705;entryY=-0.034;entryDx=0;entryDy=0;entryPerimeter=0;startArrow=blockThin;startFill=1;endArrow=blockThin;endFill=1;" edge="1" parent="1" source="Q1OHYpFkGlwIj8Ta-2Hy-18" target="Q1OHYpFkGlwIj8Ta-2Hy-21">
          <mxGeometry relative="1" as="geometry" />
        </mxCell>
        <mxCell id="Q1OHYpFkGlwIj8Ta-2Hy-38" style="edgeStyle=orthogonalEdgeStyle;rounded=0;orthogonalLoop=1;jettySize=auto;html=1;exitX=0.5;exitY=1;exitDx=0;exitDy=0;entryX=0.91;entryY=-0.023;entryDx=0;entryDy=0;entryPerimeter=0;startArrow=blockThin;startFill=1;endArrow=blockThin;endFill=1;" edge="1" parent="1" target="Q1OHYpFkGlwIj8Ta-2Hy-21">
          <mxGeometry relative="1" as="geometry">
            <mxPoint x="770" y="380" as="sourcePoint" />
            <mxPoint x="770.6" y="418.1600000000001" as="targetPoint" />
          </mxGeometry>
        </mxCell>
        <mxCell id="Q1OHYpFkGlwIj8Ta-2Hy-40" value="Interface layer" style="text;html=1;align=right;verticalAlign=middle;resizable=0;points=[];autosize=1;strokeColor=none;fillColor=none;fontSize=16;fontStyle=1" vertex="1" parent="1">
          <mxGeometry x="30" y="185" width="120" height="30" as="geometry" />
        </mxCell>
        <mxCell id="Q1OHYpFkGlwIj8Ta-2Hy-41" value="Messaging layer" style="text;html=1;align=right;verticalAlign=middle;resizable=0;points=[];autosize=1;strokeColor=none;fillColor=none;fontSize=16;fontStyle=1" vertex="1" parent="1">
          <mxGeometry x="10" y="265" width="140" height="30" as="geometry" />
        </mxCell>
        <mxCell id="Q1OHYpFkGlwIj8Ta-2Hy-42" value="Actor layer" style="text;html=1;align=right;verticalAlign=middle;resizable=0;points=[];autosize=1;strokeColor=none;fillColor=none;fontSize=16;fontStyle=1" vertex="1" parent="1">
          <mxGeometry x="50" y="345" width="100" height="30" as="geometry" />
        </mxCell>
        <mxCell id="Q1OHYpFkGlwIj8Ta-2Hy-43" value="Storage layer" style="text;html=1;align=right;verticalAlign=middle;resizable=0;points=[];autosize=1;strokeColor=none;fillColor=none;fontSize=16;fontStyle=1" vertex="1" parent="1">
          <mxGeometry x="30" y="425" width="120" height="30" as="geometry" />
        </mxCell>
      </root>
    </mxGraphModel>
  </diagram>
</mxfile>
